<svg id="Layer_1" data-name="Layer 1" xmlns="http://www.w3.org/2000/svg" width="42" height="42" viewBox="0 0 42 42"><title>Artboard 1 copy 4</title><path d="M21,1A20,20,0,1,0,41,21,20,20,0,0,0,21,1Zm9.14,28.82a1.31,1.31,0,0,1-1.8.45c-7.86-4.73-17.18-2-17.27-2a1.31,1.31,0,0,1-.76-2.51c.43-.13,10.51-3.12,19.39,2.23A1.31,1.31,0,0,1,30.14,29.86Zm2.48-5.52a1.55,1.55,0,0,1-2.12.57,26.27,26.27,0,0,0-19.92-2.34,1.55,1.55,0,1,1-1-2.93A29.1,29.1,0,0,1,32,22.22,1.55,1.55,0,0,1,32.62,24.33ZM33.72,19a1.9,1.9,0,0,1-.89-.22c-11.38-6-23.07-2.4-23.19-2.36A1.91,1.91,0,1,1,8.5,12.79C9,12.62,21.84,8.7,34.61,15.41a1.91,1.91,0,0,1-.89,3.6Z"/></svg>