<svg id="Layer_1" data-name="Layer 1" xmlns="http://www.w3.org/2000/svg" width="42" height="42" viewBox="0 0 42 42"><title>Artboard 1</title><path id="twitter-1" d="M40.43,9a15.94,15.94,0,0,1-4.58,1.26,8,8,0,0,0,3.5-4.41,15.94,15.94,0,0,1-5.06,1.93A8,8,0,0,0,20.71,15,22.63,22.63,0,0,1,4.28,6.67,8,8,0,0,0,6.75,17.31a7.93,7.93,0,0,1-3.61-1,8,8,0,0,0,6.39,7.92,8,8,0,0,1-3.6.14,8,8,0,0,0,7.45,5.54,16,16,0,0,1-11.8,3.3,22.56,22.56,0,0,0,12.22,3.58c14.8,0,23.16-12.5,22.65-23.71A16.21,16.21,0,0,0,40.43,9Z"/></svg>