<?xml version="1.0" encoding="utf-8"?>
<!-- Generator: Adobe Illustrator 22.0.0, SVG Export Plug-In . SVG Version: 6.00 Build 0)  -->
<svg version="1.1" id="Layer_1" xmlns="http://www.w3.org/2000/svg" xmlns:xlink="http://www.w3.org/1999/xlink" x="0px" y="0px"
	 viewBox="0 0 100 100" style="enable-background:new 0 0 100 100;" xml:space="preserve">
<style type="text/css">
	.st0{fill:none;stroke:#000000;stroke-miterlimit:10;}
	.st1{fill:none;stroke:#000000;stroke-linecap:round;stroke-miterlimit:10;}
	.st2{fill:none;stroke:#000000;stroke-miterlimit:10;stroke-dasharray:2.1126,2.1126;}
	.st3{fill:none;stroke:#000000;stroke-linecap:round;stroke-linejoin:round;stroke-miterlimit:10;}
</style>
<g>
	<g>
		<g>
			<path class="st1" d="M12.5,30.9C8.3,39,6.8,48.6,8.7,58.3"/>
			<path class="st1" d="M68.5,12.2c-8-3.9-17.4-5.4-26.8-3.5C30.9,10.9,22,17,16,25.2"/>
			<path class="st1" d="M91.3,41.7c-2.2-11-8.6-20.2-17.1-26.1"/>
		</g>
	</g>
	<g>
		<g>
			<path class="st1" d="M92.1,50.9c0.1-3-0.2-6.1-0.8-9.2"/>
			<path class="st1" d="M8.7,58.3c0.1,0.6,0.3,1.2,0.4,1.8"/>
		</g>
	</g>
	<path class="st1" d="M39.1,90.7C48.6,80,53,65.1,50,50"/>
	<path class="st1" d="M42.8,74.7c-2.1,5.3-5.2,10.1-9.1,14.2"/>
	<path class="st1" d="M45,91.8C54.2,80.1,58.3,64.7,55.2,49l0,0c-0.6-2.9-3.4-4.7-6.2-4.1c-2.9,0.6-4.7,3.4-4.1,6.2l0,0
		c1.2,5.8,1.1,11.7-0.1,17.1"/>
	<path class="st1" d="M40.1,54.5c1.7,12.2-2.9,23.9-11.4,31.9"/>
	<path class="st1" d="M61.5,59.3c0-3.7-0.4-7.5-1.2-11.3l0,0c-1.2-5.7-6.7-9.4-12.4-8.3c-4.3,0.9-7.4,4.2-8.2,8.2"/>
	<path class="st1" d="M51.3,92.1c5.3-7.7,8.7-16.7,9.8-26.1"/>
	<path class="st1" d="M51.2,34.3c-1.4-0.1-2.9,0-4.4,0.3c-8.6,1.7-14.1,10.1-12.4,18.6l0,0c2.3,11.6-2,22.9-10.3,30.2"/>
	<path class="st1" d="M58,91.3c7.6-12.9,10.6-28.6,7.4-44.4l0,0c-1-4.7-3.9-8.5-7.8-10.7"/>
	<path class="st1" d="M28.1,68.9c-1.6,4.2-4.4,8-7.9,10.9"/>
	<path class="st1" d="M71.1,70.5c1.3-7.9,1.2-16.3-0.5-24.6l0,0c-2.3-11.4-13.4-18.8-24.8-16.5C34.4,31.7,27,42.8,29.3,54.2l0,0
		c0.5,2.7,0.7,5.4,0.4,8"/>
	<path class="st1" d="M65.1,89.3c1.9-3.9,3.5-8,4.6-12.3"/>
	<path class="st1" d="M71.3,34.5c2.2,3,3.7,6.4,4.5,10.3l0,0c2.9,14.2,1.4,28.2-3.4,40.8"/>
	<path class="st1" d="M39,26.1c1.8-0.8,3.7-1.5,5.8-1.9c8.1-1.6,16,0.6,21.9,5.4"/>
	<path class="st1" d="M16.7,75.8c5.9-4.8,9.1-12.6,7.5-20.6l0,0c-2-9.9,1.9-19.7,9.2-25.7"/>
	<path class="st1" d="M18.4,51.3c0.1,1.7,0.3,3.3,0.6,5l0,0c1.2,5.9-1,11.6-5.3,15.2"/>
	<path class="st1" d="M81.7,47.9c-0.2-1.4-0.4-2.7-0.7-4.1l0,0c-3.4-17.1-20.1-28.2-37.2-24.7C30.6,21.7,21,32.2,18.9,44.6"/>
	<path class="st1" d="M79.9,79.7c2.1-8.1,3-16.5,2.5-25.2"/>
	<path class="st1" d="M54.9,13.5c-4-0.5-8.1-0.4-12.2,0.4c-19.9,4-32.9,23.4-28.8,43.4l0,0c0.7,3.5-0.4,6.9-2.6,9.3"/>
	<path class="st1" d="M87.1,69.8c1.1-8.8,0.8-17.9-1-27.1l0,0c-2.7-13.6-12.6-23.9-24.9-27.8"/>
</g>
</svg>
