<svg id="Layer_1" data-name="Layer 1" xmlns="http://www.w3.org/2000/svg" width="300" height="300" viewBox="0 0 300 300"><title>Artboard 1 copy 11</title><path d="M220,211H160v-.58c0-14.37,10.48-27.66,24.11-30.58a18.77,18.77,0,0,1-12.18-17.42,18.12,18.12,0,1,1,36.24-.25,19.43,19.43,0,0,1-12.33,17.71c13.65,2.91,24.15,16.18,24.15,30.54Zm-59.66-1h59.23c-.25-14-11.63-27.59-25.59-29.5l-2.53-.36,2.49-.6c7.55-1.79,13.25-9.26,13.25-17.38a17.23,17.23,0,1,0-34.46.25A17.58,17.58,0,0,0,186,179.5l2.49.59-2.53.37C172,182.36,160.59,196,160.34,210Z"/><path d="M140,211H80v-.58c0-14.37,10.52-27.66,24.16-30.58A18.75,18.75,0,0,1,92,162.42a18.13,18.13,0,1,1,36.26-.25,19.47,19.47,0,0,1-12.37,17.71c13.65,2.91,24.11,16.18,24.11,30.54Zm-59.57-1h59.23c-.25-14-11.63-27.59-25.59-29.5l-2.53-.36,2.49-.6c7.55-1.79,13.25-9.26,13.25-17.38a17.23,17.23,0,1,0-34.46.25,17.58,17.58,0,0,0,13.25,17.08l2.49.59-2.53.37C92.06,182.36,80.67,196,80.43,210Z"/><path d="M164.75,145.61l-8.14-12H144.66V89.39H214v44.23H171.47Zm-19.13-12.94h11.5l7.55,11.13,6.24-11.13h42.17V90.34H145.61Z"/><rect x="157" y="104" width="45" height="1"/><rect x="157" y="117" width="45" height="1"/><path d="M130.84,145.61l-3-5.36H109.57V120.84H139.7v19.41h-5.23Zm-20.32-6.31h17.87l2.52,4.5,3.06-4.5h4.78V121.79H110.52Z"/></svg>