<svg id="Layer_1" data-name="Layer 1" xmlns="http://www.w3.org/2000/svg" width="200" height="200" viewBox="0 0 200 200"><title>Artboard 1 copy 12</title><path d="M19.6,58.94a89.88,89.88,0,0,0-8.11,58.94" fill="none" stroke="#000" stroke-linecap="round" stroke-miterlimit="10"/><path d="M139.7,19A90.28,90.28,0,0,0,27.08,46.79" fill="none" stroke="#000" stroke-linecap="round" stroke-miterlimit="10"/><path d="M188.46,82.19a90,90,0,0,0-36.62-56" fill="none" stroke="#000" stroke-linecap="round" stroke-miterlimit="10"/><path d="M190.29,101.85a90.65,90.65,0,0,0-1.78-19.67" fill="none" stroke="#000" stroke-linecap="round" stroke-miterlimit="10"/><path d="M11.54,117.86q.39,1.94.86,3.85" fill="none" stroke="#000" stroke-linecap="round" stroke-miterlimit="10"/><path d="M76.67,187.25A101.46,101.46,0,0,0,100,100" fill="none" stroke="#000" stroke-linecap="round" stroke-miterlimit="10"/><path d="M84.58,152.88A90.83,90.83,0,0,1,65,183.25" fill="none" stroke="#000" stroke-linecap="round" stroke-miterlimit="10"/><path d="M89.31,189.68A112.66,112.66,0,0,0,111.06,97.8h0a11.34,11.34,0,1,0-22.24,4.48h.08A90,90,0,0,1,88.75,139" fill="none" stroke="#000" stroke-linecap="round" stroke-miterlimit="10"/><path d="M78.73,109.57a79,79,0,0,1-24.4,68.33" fill="none" stroke="#000" stroke-linecap="round" stroke-miterlimit="10"/><path d="M124.6,119.89a124.74,124.74,0,0,0-2.47-24.32h0a22.62,22.62,0,0,0-44.32-.14" fill="none" stroke="#000" stroke-linecap="round" stroke-miterlimit="10"/><path d="M102.86,190.26A124.24,124.24,0,0,0,123.8,134.2" fill="none" stroke="#000" stroke-linecap="round" stroke-miterlimit="10"/><path d="M102.63,66.23a33.92,33.92,0,0,0-35.88,40.5h.06A67.75,67.75,0,0,1,44.7,171.4" fill="none" stroke="#000" stroke-linecap="round" stroke-miterlimit="10"/><path d="M117.25,188.62a135,135,0,0,0,15.93-95.29h0a33.82,33.82,0,0,0-16.74-22.91" fill="none" stroke="#000" stroke-linecap="round" stroke-miterlimit="10"/><path d="M53.06,140.5a56.79,56.79,0,0,1-16.93,23.35" fill="none" stroke="#000" stroke-linecap="round" stroke-miterlimit="10"/><path d="M145.23,143.92a146.35,146.35,0,0,0-1-52.81h0A45.17,45.17,0,1,0,55.7,109h.05a56.44,56.44,0,0,1,.81,17.18" fill="none" stroke="#000" stroke-linecap="round" stroke-miterlimit="10"/><path d="M132.36,184.29A146.84,146.84,0,0,0,142.2,158" fill="none" stroke="#000" stroke-linecap="round" stroke-miterlimit="10"/><path d="M145.63,66.81a56.26,56.26,0,0,1,9.68,22.06h0a157.3,157.3,0,0,1-7.25,87.57" fill="none" stroke="#000" stroke-linecap="round" stroke-miterlimit="10"/><path d="M76.41,48.72a56.54,56.54,0,0,1,59.35,7.65" fill="none" stroke="#000" stroke-linecap="round" stroke-miterlimit="10"/><path d="M28.65,155.38a45.19,45.19,0,0,0,16-44.2h0a56.43,56.43,0,0,1,19.78-55" fill="none" stroke="#000" stroke-linecap="round" stroke-miterlimit="10"/><path d="M32.3,102.71a68.24,68.24,0,0,0,1.29,10.7h0A33.92,33.92,0,0,1,22.28,146" fill="none" stroke="#000" stroke-linecap="round" stroke-miterlimit="10"/><path d="M167.91,95.41q-.65-4.38-1.53-8.77h0a67.73,67.73,0,0,0-133.12,1.8" fill="none" stroke="#000" stroke-linecap="round" stroke-miterlimit="10"/><path d="M164.05,163.62a168.24,168.24,0,0,0,5.35-54" fill="none" stroke="#000" stroke-linecap="round" stroke-miterlimit="10"/><path d="M110.56,21.73a79.05,79.05,0,0,0-88,93.92h0A22.61,22.61,0,0,1,17,135.52" fill="none" stroke="#000" stroke-linecap="round" stroke-miterlimit="10"/><path d="M179.65,142.46a180.41,180.41,0,0,0-2.22-58h0A79,79,0,0,0,124,24.77" fill="none" stroke="#000" stroke-linecap="round" stroke-miterlimit="10"/></svg>