<svg id="Layer_1" data-name="Layer 1" xmlns="http://www.w3.org/2000/svg" width="300" height="300" viewBox="0 0 300 300"><title>Artboard 1 copy 8</title><path d="M170,205.21h-.35c-17.79-.54-44.56-26-52.34-33.74C104.84,159,85.49,133.76,83.57,119.18c-.86-6.52,3.09-8.79,8.56-11.93a48.75,48.75,0,0,0,11-7.94,6.66,6.66,0,0,1,10.47,1.36l9.33,16a6.67,6.67,0,0,1-1,8.06l-2.67,2.67a5.66,5.66,0,0,0-1.09,6.48c2.95,6.06,8.71,17,14.18,22.52,5,5,15.59,11.38,21.46,14.74a5.67,5.67,0,0,0,6.81-.92l3.4-3.4a6.67,6.67,0,0,1,8.06-1l16,9.33a6.66,6.66,0,0,1,1.36,10.47,57,57,0,0,0-7.54,9.91C178.44,200.92,175.68,205.21,170,205.21ZM107.86,98.36a5.61,5.61,0,0,0-4,1.66,50.26,50.26,0,0,1-11.24,8.1c-5.32,3.06-8.84,5.08-8.07,10.93,1.71,13,18.7,37,33.45,51.71,7.71,7.71,34.24,32.92,51.66,33.45,5.41.15,8-4,11.41-9.23a57.84,57.84,0,0,1,7.67-10.08A5.66,5.66,0,0,0,187.6,176l-16-9.33a5.67,5.67,0,0,0-6.85.89l-3.4,3.4a6.67,6.67,0,0,1-8,1.08c-5.92-3.39-16.6-9.83-21.67-14.9-5.58-5.58-11.4-16.67-14.37-22.79a6.66,6.66,0,0,1,1.28-7.62l2.67-2.67a5.67,5.67,0,0,0,.89-6.85l-9.33-16a5.62,5.62,0,0,0-4.16-2.77A5.8,5.8,0,0,0,107.86,98.36Z"/><path d="M164.75,153.88l-8.55-12.6H143.64V94.79h72.91v46.49H171.81Zm-20.11-13.6h12.09l7.94,11.7,6.56-11.7h44.32V95.79H144.64Z"/><rect x="156" y="110" width="48" height="1"/><rect x="156" y="123" width="48" height="1"/></svg>