<?xml version="1.0" encoding="utf-8"?>
<!-- Generator: Adobe Illustrator 22.0.0, SVG Export Plug-In . SVG Version: 6.00 Build 0)  -->
<svg version="1.1" id="Layer_1" xmlns="http://www.w3.org/2000/svg" xmlns:xlink="http://www.w3.org/1999/xlink" x="0px" y="0px"
	 viewBox="0 0 100 100" style="enable-background:new 0 0 100 100;" xml:space="preserve">
<style type="text/css">
	.st0{fill:none;stroke:#000000;stroke-miterlimit:10;}
	.st1{fill:none;stroke:#000000;stroke-linecap:round;stroke-miterlimit:10;}
	.st2{fill:none;stroke:#000000;stroke-miterlimit:10;stroke-dasharray:2.1126,2.1126;}
	.st3{fill:none;stroke:#000000;stroke-linecap:round;stroke-linejoin:round;stroke-miterlimit:10;}
</style>
<g>
	<path class="st0" d="M67.7,61.9c1.6,0.9,1.9,3.2,0.6,4.5v0c-4.1,4.1-4.9,9.2-9.1,9.1c-7-0.2-17.4-8.8-24.2-15.7
		c-6.4-6.4-14.8-17.8-15.7-24.2c-0.6-4.7,4.4-4.4,9.1-9.1l0,0c1.3-1.3,3.6-1,4.5,0.6l4.4,7.5c0.7,1.1,0.5,2.6-0.5,3.5l-1.2,1.2
		c-0.9,0.9-1.1,2.2-0.6,3.3c1.4,2.8,4.1,8,6.7,10.6c2.3,2.3,7.3,5.3,10.1,6.9c1.1,0.6,2.5,0.5,3.5-0.5l1.6-1.6
		c0.9-0.9,2.3-1.1,3.5-0.5L67.7,61.9z"/>
	<g>
		<polygon class="st0" points="80.8,45.7 60,45.7 56.9,51.4 53,45.7 47.3,45.7 47.3,24.5 80.8,24.5 		"/>
		<line class="st0" x1="52.8" y1="31.6" x2="75.2" y2="31.6"/>
		<line class="st0" x1="52.8" y1="37.6" x2="75.2" y2="37.6"/>
	</g>
</g>
</svg>
