<?xml version="1.0" encoding="utf-8"?>
<!-- Generator: Adobe Illustrator 22.0.0, SVG Export Plug-In . SVG Version: 6.00 Build 0)  -->
<svg version="1.1" id="Layer_1" xmlns="http://www.w3.org/2000/svg" xmlns:xlink="http://www.w3.org/1999/xlink" x="0px" y="0px"
	 viewBox="0 0 100 100" style="enable-background:new 0 0 100 100;" xml:space="preserve">
<style type="text/css">
	.st0{fill:none;stroke:#000000;stroke-miterlimit:10;}
	.st1{fill:none;stroke:#000000;stroke-linecap:round;stroke-miterlimit:10;}
	.st2{fill:none;stroke:#000000;stroke-miterlimit:10;stroke-dasharray:2.1126,2.1126;}
	.st3{fill:none;stroke:#000000;stroke-linecap:round;stroke-linejoin:round;stroke-miterlimit:10;}
</style>
<g>
	<ellipse class="st0" cx="50" cy="83.2" rx="37.3" ry="6.7"/>
	<g>
		<path class="st0" d="M28.2,61.4c0,12,9.8,21.8,21.8,21.8s21.8-9.8,21.8-21.8V45.1H28.2V61.4z"/>
		<path class="st0" d="M77.2,59.5c4,0,7.2-3.2,7.2-7.2s-3.2-7.2-7.2-7.2h-5.4v14.4H77.2z"/>
	</g>
	<g>
		<path class="st0" d="M47.2,10.1c0,0-6.2,7.5,0,13.7s0,14.9,0,14.9"/>
		<path class="st0" d="M52.8,10.1c0,0-6.2,7.5,0,13.7s0,14.9,0,14.9"/>
	</g>
</g>
</svg>
