<svg id="Layer_1" data-name="Layer 1" xmlns="http://www.w3.org/2000/svg" width="300" height="300" viewBox="0 0 300 300"><title>Artboard 1 copy 5</title><path d="M150,213.72c-29.34,0-59.68-4.12-59.68-11s30.34-11,59.68-11,59.68,4.12,59.68,11S179.34,213.72,150,213.72Zm0-21.29c-31.95,0-58.94,4.71-58.94,10.28S118.05,213,150,213s58.94-4.71,58.94-10.27S181.95,192.43,150,192.43Z"/><path d="M150,203.07a35.06,35.06,0,0,1-35-35V141.85h70v26.21A35.06,35.06,0,0,1,150,203.07Zm-34.28-60.49v25.47a34.28,34.28,0,1,0,68.55,0V142.59Z"/><path d="M193.18,165.48h-8.9V141.85h8.9a11.81,11.81,0,0,1,0,23.63Zm-8.16-.74h8.16a11.07,11.07,0,0,0,0-22.15H185Z"/><path d="M145.86,132.09l-.6-.43c.1-.14,9.52-13.65,0-23.13-9.94-9.94-.12-22.13,0-22.25l.57.47a22.18,22.18,0,0,0-3.62,7.09A13.5,13.5,0,0,0,145.82,108C155.74,117.92,146,131.95,145.86,132.09Z"/><path d="M154.75,132.09l-.6-.43c.1-.14,9.52-13.65,0-23.13-9.94-9.94-.12-22.13,0-22.25l.57.47a22.18,22.18,0,0,0-3.62,7.09A13.5,13.5,0,0,0,154.71,108C164.63,117.92,154.85,131.95,154.75,132.09Z"/></svg>