<svg id="Layer_1" data-name="Layer 1" xmlns="http://www.w3.org/2000/svg" width="300" height="300" viewBox="0 0 300 300"><title>Artboard 1 copy 9</title><path d="M218,180H150v-.7c0-16,12-30.84,27.28-34.1a20.84,20.84,0,0,1-13.51-19.44,20.35,20.35,0,1,1,40.7-.23,21.19,21.19,0,0,1-13.65,19.7C206.1,148.5,218,163.3,218,179.3Zm-67.07-1h66.34c-.28-16-13-30.85-28.66-33l-2.84-.44,2.78-.69c8.6-2,14.84-10.18,14.84-19.33a19.3,19.3,0,1,0-38.59.22,19.65,19.65,0,0,0,14.84,19.06l2.78.66-2.84.5C164,148.11,151.2,163,150.93,179Z"/><path d="M150,180H82v-.7c0-16,11.91-30.84,27.18-34.1a20.89,20.89,0,0,1-13.56-19.44,20.33,20.33,0,1,1,40.66-.23,21.11,21.11,0,0,1-13.56,19.7C138,148.5,150,163.3,150,179.3Zm-67.27-1h66.34c-.28-16-13-30.85-28.66-33l-2.84-.44,2.79-.69c8.6-2,14.84-10.18,14.84-19.33a19.3,19.3,0,1,0-38.59.22,19.65,19.65,0,0,0,14.84,19.06l2.79.66-2.84.5C95.76,148.11,83,163,82.73,179Z"/><path d="M184,195H116v-.78c0-16,12-30.84,27.23-34.1a20.86,20.86,0,0,1-13.53-19.44,20.34,20.34,0,1,1,40.68-.23,21.15,21.15,0,0,1-13.6,19.7C172,163.42,184,178.22,184,194.22Zm-67.17-1h66.34c-.28-16-13-30.89-28.66-33l-2.84-.46,2.78-.7c8.6-2,14.84-10.18,14.84-19.34a19.3,19.3,0,1,0-38.59.21,19.65,19.65,0,0,0,14.84,19.05l2.79.66-2.84.54C129.86,163.07,117.1,178,116.83,194Z"/></svg>