<?xml version="1.0" encoding="utf-8"?>
<!-- Generator: Adobe Illustrator 22.0.0, SVG Export Plug-In . SVG Version: 6.00 Build 0)  -->
<svg version="1.1" id="Layer_1" xmlns="http://www.w3.org/2000/svg" xmlns:xlink="http://www.w3.org/1999/xlink" x="0px" y="0px"
	 viewBox="0 0 100 100" style="enable-background:new 0 0 100 100;" xml:space="preserve">
<style type="text/css">
	.st0{fill:none;stroke:#000000;stroke-miterlimit:10;}
	.st1{fill:none;stroke:#000000;stroke-linecap:round;stroke-miterlimit:10;}
	.st2{fill:none;stroke:#000000;stroke-miterlimit:10;stroke-dasharray:2.1126,2.1126;}
	.st3{fill:none;stroke:#000000;stroke-linecap:round;stroke-linejoin:round;stroke-miterlimit:10;}
</style>
<g>
	<path class="st0" d="M54.8,31.4v-2.8h2.4c1.3,0,2.4-1.1,2.4-2.4v-2.4c0-1.3-1.1-2.4-2.4-2.4H42.9c-1.3,0-2.4,1.1-2.4,2.4v2.4
		c0,1.3,1.1,2.4,2.4,2.4h2.4v2.8c-16.1,2.3-28.5,16.1-28.5,32.9h66.5C83.3,47.5,70.9,33.7,54.8,31.4z M85.6,69H14.4
		c-1.3,0-2.4,1.1-2.4,2.4v4.8c0,1.3,1.1,2.4,2.4,2.4h71.3c1.3,0,2.4-1.1,2.4-2.4v-4.8C88,70.1,86.9,69,85.6,69z"/>
</g>
</svg>
