<svg id="Layer_1" data-name="Layer 1" xmlns="http://www.w3.org/2000/svg" width="200" height="200" viewBox="0 0 200 200"><title>Artboard 1 copy 13</title><path d="M110.19,60.05v-5.9h5.09a5.09,5.09,0,0,0,5.09-5.09V44a5.09,5.09,0,0,0-5.09-5.09H84.72A5.09,5.09,0,0,0,79.62,44v5.09a5.09,5.09,0,0,0,5.09,5.09h5.09v5.9a71.28,71.28,0,0,0-61.13,70.51H171.32A71.28,71.28,0,0,0,110.19,60.05Zm66.23,80.7H23.59a5.09,5.09,0,0,0-5.09,5.09V156a5.09,5.09,0,0,0,5.09,5.09H176.41a5.09,5.09,0,0,0,5.09-5.09V145.85A5.09,5.09,0,0,0,176.41,140.75Z" fill="none" stroke="#000" stroke-miterlimit="10"/></svg>