<svg id="Layer_1" data-name="Layer 1" xmlns="http://www.w3.org/2000/svg" width="300" height="300" viewBox="0 0 300 300"><title>Artboard 1 copy 6</title><path d="M176.44,145.31H123.56V125.5a26.44,26.44,0,1,1,52.88,0Zm-52.21-.67h51.55V125.5a25.77,25.77,0,1,0-51.55,0Z"/><path d="M190,210.94H110v-66.6H190Zm-79.25-.67h78.59V145H110.71Zm42-18.65h-5.33V177a6.33,6.33,0,0,1-3.49-5.52,6.11,6.11,0,0,1,6.09-6.25,6.23,6.23,0,0,1,6.19,6.25,6.32,6.32,0,0,1-3.46,5.52ZM148,191h4V176.59l.19-.09a5.66,5.66,0,0,0,3.27-5,5.56,5.56,0,0,0-5.52-5.59,5.45,5.45,0,0,0-5.43,5.59,5.68,5.68,0,0,0,3.3,5l.19.09Z"/></svg>