<svg id="Layer_1" data-name="Layer 1" xmlns="http://www.w3.org/2000/svg" width="300" height="300" viewBox="0 0 300 300"><title>Artboard 1 copy 7</title><path d="M135.65,225a48.15,48.15,0,0,1-8.43-95.56l.17.95a47.19,47.19,0,1,0,55.44,46.46h1A48.2,48.2,0,0,1,135.65,225Z"/><polygon points="196.92 208.82 196.86 208.41 191.75 169.5 135 158.93 135 95 136 95 136 158.27 192.56 168.82 192.49 169.1 197.65 207.9 211.71 205.49 211.83 206.28 196.92 208.82"/><path d="M135.37,105.43a15.16,15.16,0,1,1,15.16-15.16A15.17,15.17,0,0,1,135.37,105.43Zm0-29.52a14.36,14.36,0,1,0,14.36,14.36A14.38,14.38,0,0,0,135.37,75.91Z"/><rect x="135" y="130" width="30" height="1"/></svg>