<svg id="Layer_1" data-name="Layer 1" xmlns="http://www.w3.org/2000/svg" viewBox="0 0 100 100"><defs><style>.cls-1{fill:none;stroke:#000;stroke-miterlimit:10;}</style></defs><title>Espacio-para-eventos</title><g id="VJdMZ1"><path class="cls-1" d="M47,80c-.9-.4-1.6-.6-2.2-.9-12-5.3-24-10.7-36-16A2.52,2.52,0,0,1,7,60.4c.1-7.2,0-14.5,0-21.9a11.5,11.5,0,0,1,1.7.6C21,44.6,33.2,50.3,45.5,55.9c.6.3,1.5,1,1.5,1.5C47.1,64.9,47,72.3,47,80Z"/><path class="cls-1" d="M53,79.9c0-6.3.3-12.5-.1-18.6-.2-3.6,1-5.3,4.3-6.7,11.2-4.8,22.2-10.1,33.3-15.2.7-.3,1.5-.6,2.5-1.1v5.4c0,5.6,0,11.3-.1,16.9a2.87,2.87,0,0,1-1.2,2.2C79.2,68.5,66.6,74.1,54,79.7,53.6,79.8,53.3,79.8,53,79.9Z"/><path class="cls-1" d="M89.3,36.2c-3.5,1.6-6.5,3-9.4,4.3-5.1,2.3-10.2,4.7-15.3,7a4.47,4.47,0,0,1-2.8,0A74.3,74.3,0,0,1,54.2,44a2.44,2.44,0,0,1-1.3-1.7c-.1-7.3-.1-14.6-.1-22.4Z"/><path class="cls-1" d="M47.1,20c0,6.5-.3,12.7.1,18.8.2,3.6-1,5.2-4.2,6.8-4.3,2.2-7.9,2.3-12.2,0-5.6-3.1-11.6-5.4-17.5-8.1-.7-.3-1.4-.7-2.5-1.3Z"/></g></svg>
