<?xml version="1.0" encoding="utf-8"?>
<!-- Generator: Adobe Illustrator 22.0.0, SVG Export Plug-In . SVG Version: 6.00 Build 0)  -->
<svg version="1.1" id="Layer_1" xmlns="http://www.w3.org/2000/svg" xmlns:xlink="http://www.w3.org/1999/xlink" x="0px" y="0px"
	 viewBox="0 0 100 100" style="enable-background:new 0 0 100 100;" xml:space="preserve">
<style type="text/css">
	.st0{fill:none;stroke:#000000;stroke-miterlimit:10;}
	.st1{fill:none;stroke:#000000;stroke-linecap:round;stroke-miterlimit:10;}
	.st2{fill:none;stroke:#000000;stroke-miterlimit:10;stroke-dasharray:2.1126,2.1126;}
	.st3{fill:none;stroke:#000000;stroke-linecap:round;stroke-linejoin:round;stroke-miterlimit:10;}
</style>
<g>
	<path class="st0" d="M62.9,48c-3.8-0.9-6.7-4.5-6.7-8.6c0-4.8,3.9-8.7,8.7-8.7c4.8,0,8.7,3.9,8.7,8.6c0,4.1-2.8,7.8-6.7,8.7
		c7.2,1,12.7,7.9,12.7,14.8H50.2C50.2,55.8,55.7,48.9,62.9,48z"/>
	<path class="st0" d="M33.1,48c-3.8-0.9-6.7-4.5-6.7-8.6c0-4.8,3.9-8.7,8.7-8.7s8.7,3.9,8.7,8.6c0,4.1-2.8,7.8-6.7,8.7
		c7.2,1,12.7,7.9,12.7,14.8H20.3C20.3,55.8,25.9,48.9,33.1,48z"/>
	<path class="st0" d="M48,54.5c-3.8-0.9-6.7-4.5-6.7-8.6c0-4.8,3.9-8.7,8.7-8.7s8.7,3.9,8.7,8.6c0,4.1-2.8,7.8-6.7,8.7
		c7.2,1,12.7,7.9,12.7,14.8H35.2C35.2,62.4,40.8,55.5,48,54.5z"/>
</g>
</svg>
