<?xml version="1.0" encoding="utf-8"?>
<!-- Generator: Adobe Illustrator 22.0.0, SVG Export Plug-In . SVG Version: 6.00 Build 0)  -->
<svg version="1.1" id="Layer_1" xmlns="http://www.w3.org/2000/svg" xmlns:xlink="http://www.w3.org/1999/xlink" x="0px" y="0px"
	 viewBox="0 0 100 100" style="enable-background:new 0 0 100 100;" xml:space="preserve">
<style type="text/css">
	.st0{fill:none;stroke:#000000;stroke-miterlimit:10;}
	.st1{fill:none;stroke:#000000;stroke-linecap:round;stroke-miterlimit:10;}
	.st2{fill:none;stroke:#000000;stroke-miterlimit:10;stroke-dasharray:2.1126,2.1126;}
	.st3{fill:none;stroke:#000000;stroke-linecap:round;stroke-linejoin:round;stroke-miterlimit:10;}
</style>
<g>
	<path class="st0" d="M45.4,64.7c-3.8-0.9-6.7-4.6-6.7-8.7c0-4.8,3.9-8.8,8.7-8.8s8.7,3.8,8.7,8.6c0,4.1-2.8,8.1-6.7,9
		c7.2,1,12.7,8.1,12.7,15.1H32.7C32.7,72.8,38.2,65.6,45.4,64.7z"/>
	<g>
		<polygon class="st0" points="85.6,41.4 64.8,41.4 57,47.1 57.8,41.4 52.1,41.4 52.1,20.2 85.6,20.2 		"/>
		<line class="st0" x1="57.7" y1="28" x2="80.1" y2="28"/>
		<line class="st0" x1="57.7" y1="34.1" x2="80.1" y2="34.1"/>
	</g>
	<g>
		<polygon class="st0" points="14.4,43.1 29.1,43.1 36,47.1 34.1,43.1 38.1,43.1 38.1,28.1 14.4,28.1 		"/>
	</g>
	<g>
		<g>
			<line class="st0" x1="18.1" y1="32.7" x2="19.1" y2="32.7"/>
			<line class="st2" x1="21.2" y1="32.7" x2="32.8" y2="32.7"/>
			<line class="st0" x1="33.9" y1="32.7" x2="34.9" y2="32.7"/>
		</g>
	</g>
	<g>
		<g>
			<line class="st0" x1="18.1" y1="37.4" x2="19.1" y2="37.4"/>
			<line class="st2" x1="21.2" y1="37.4" x2="32.8" y2="37.4"/>
			<line class="st0" x1="33.9" y1="37.4" x2="34.9" y2="37.4"/>
		</g>
	</g>
</g>
</svg>
