<svg id="Layer_1" data-name="Layer 1" xmlns="http://www.w3.org/2000/svg" width="200" height="200" viewBox="0 0 200 200"><title>Artboard 1 copy 14</title><path d="M95.7,134c-8.2-1.94-14.31-9.9-14.31-18.69A18.87,18.87,0,0,1,100,96.39a18.48,18.48,0,0,1,18.61,18.46c0,8.79-6.11,17.28-14.31,19.22,15.43,2.1,27.33,17.44,27.33,32.44H68.37C68.37,151.5,80.27,136.09,95.7,134Z" fill="none" stroke="#000" stroke-miterlimit="10"/><polygon points="181.8 84.14 137.27 84.14 120.46 96.28 122.21 84.14 109.89 84.14 109.89 38.64 181.8 38.64 181.8 84.14" fill="none" stroke="#000" stroke-miterlimit="10"/><line x1="122" y1="55.5" x2="170" y2="55.5" fill="none" stroke="#000" stroke-miterlimit="10"/><line x1="122" y1="68.5" x2="170" y2="68.5" fill="none" stroke="#000" stroke-miterlimit="10"/><polygon points="29.15 87.69 60.64 87.69 75.45 96.28 71.28 87.69 80 87.69 80 55.52 29.15 55.52 29.15 87.69" fill="none" stroke="#000" stroke-miterlimit="10"/><line x1="37" y1="65.5" x2="38" y2="65.5" fill="none" stroke="#000" stroke-miterlimit="10"/><line x1="40" y1="65.5" x2="71" y2="65.5" fill="none" stroke="#000" stroke-miterlimit="10" stroke-dasharray="2 2"/><line x1="72" y1="65.5" x2="73" y2="65.5" fill="none" stroke="#000" stroke-miterlimit="10"/><line x1="37" y1="75.5" x2="38" y2="75.5" fill="none" stroke="#000" stroke-miterlimit="10"/><line x1="40" y1="75.5" x2="71" y2="75.5" fill="none" stroke="#000" stroke-miterlimit="10" stroke-dasharray="2 2"/><line x1="72" y1="75.5" x2="73" y2="75.5" fill="none" stroke="#000" stroke-miterlimit="10"/></svg>