<svg id="Layer_1" data-name="Layer 1" xmlns="http://www.w3.org/2000/svg" width="300" height="300" viewBox="0 0 300 300"><title>Artboard 1</title><path d="M148.38,225.67A75.76,75.76,0,0,1,72.71,150h.67a75,75,0,1,0,23-54l-.46-.48a75.67,75.67,0,1,1,52.52,130.16Z"/><path d="M78.9,151H66.27l6.22-9.8Zm-11.42,0H77.67l-5.17-7.91Z"/><rect x="148" y="92" width="1" height="63"/><path d="M148.38,157.72a2.72,2.72,0,1,1,2.72-2.72A2.73,2.73,0,0,1,148.38,157.72Zm0-4.78a2.06,2.06,0,1,0,2.06,2.06A2.06,2.06,0,0,0,148.38,152.94Z"/></svg>