<svg id="Layer_1" data-name="Layer 1" xmlns="http://www.w3.org/2000/svg" width="300" height="300" viewBox="0 0 300 300"><title>Artboard 1 copy 2</title><path d="M219.52,182.77h-139a3.69,3.69,0,0,1-3.69-3.69v-38a12.37,12.37,0,0,1,12.36-12.36h121.7a12.37,12.37,0,0,1,12.36,12.36v38A3.69,3.69,0,0,1,219.52,182.77ZM89.15,129.59a11.55,11.55,0,0,0-11.54,11.54v38A2.87,2.87,0,0,0,80.48,182h139a2.87,2.87,0,0,0,2.87-2.87v-38a11.55,11.55,0,0,0-11.54-11.54Z"/><path d="M194,203.93H106V171.12a8.92,8.92,0,0,1,8.91-8.91h70.14a8.92,8.92,0,0,1,8.91,8.91Zm-87.13-.82h86.31v-32a8.09,8.09,0,0,0-8.09-8.09H114.93a8.09,8.09,0,0,0-8.09,8.09Z"/><path d="M194,129.59H106V105a8.92,8.92,0,0,1,8.91-8.91h70.14A8.92,8.92,0,0,1,194,105Zm-87.13-.82h86.31V105a8.09,8.09,0,0,0-8.09-8.09H114.93a8.09,8.09,0,0,0-8.09,8.09Z"/><rect x="89" y="140" width="18" height="1"/></svg>