<?xml version="1.0" encoding="utf-8"?>
<!-- Generator: Adobe Illustrator 22.0.0, SVG Export Plug-In . SVG Version: 6.00 Build 0)  -->
<svg version="1.1" id="Layer_1" xmlns="http://www.w3.org/2000/svg" xmlns:xlink="http://www.w3.org/1999/xlink" x="0px" y="0px"
	 viewBox="0 0 100 100" style="enable-background:new 0 0 100 100;" xml:space="preserve">
<style type="text/css">
	.st0{fill:none;stroke:#000000;stroke-miterlimit:10;}
	.st1{fill:none;stroke:#000000;stroke-linecap:round;stroke-miterlimit:10;}
	.st2{fill:none;stroke:#000000;stroke-miterlimit:10;stroke-dasharray:2.1126,2.1126;}
	.st3{fill:none;stroke:#000000;stroke-linecap:round;stroke-linejoin:round;stroke-miterlimit:10;}
</style>
<g>
	<path class="st0" d="M8.6,66.5V45c0-3.8,3-6.8,6.8-6.8h69.2c3.8,0,6.8,3,6.8,6.8v21.6c0,1-0.8,1.9-1.9,1.9H10.5
		C9.4,68.4,8.6,67.6,8.6,66.5z"/>
	<path class="st0" d="M25.2,80.4V62c0-2.7,2.2-4.8,4.8-4.8H70c2.7,0,4.8,2.2,4.8,4.8v18.4H25.2z"/>
	<path class="st0" d="M25.2,38.2V24.4c0-2.7,2.2-4.8,4.8-4.8H70c2.7,0,4.8,2.2,4.8,4.8v13.8H25.2z"/>
	<line class="st0" x1="15" y1="44.6" x2="25.3" y2="44.6"/>
</g>
</svg>
