<svg id="Layer_1" data-name="Layer 1" xmlns="http://www.w3.org/2000/svg" width="200" height="200" viewBox="0 0 200 200"><title>Artboard 1 copy 10</title><path d="M31.14,37.32h33A39.93,39.93,0,0,1,104,77.25v0a0,0,0,0,1,0,0H31.14a0,0,0,0,1,0,0V37.32A0,0,0,0,1,31.14,37.32Z" transform="translate(-20.71 64.57) rotate(-45)" fill="none" stroke="#000" stroke-miterlimit="10"/><rect x="114.32" y="54.71" width="18.04" height="120.44" transform="translate(-45.14 120.88) rotate(-45)" fill="none" stroke="#000" stroke-miterlimit="10"/><polyline points="105.48 109.82 81.52 133.77 83.91 136.16 77.94 159.79 54.61 166.06 71.83 148.84 54.61 131.62 37.39 148.84 36.94 148.39 43.05 124.91 66.54 118.79 69.14 121.4 93.1 97.44" fill="none" stroke="#000" stroke-miterlimit="10"/><polyline points="118.23 97.06 134.8 80.5 137.27 82.97 160.75 76.85 166.87 53.37 166.55 53.05 149.33 70.27 132.1 53.05 149.59 35.56 126.06 41.9 119.9 65.6 122.42 68.12 105.86 84.69" fill="none" stroke="#000" stroke-miterlimit="10"/></svg>