<?xml version="1.0" encoding="utf-8"?>
<!-- Generator: Adobe Illustrator 22.0.0, SVG Export Plug-In . SVG Version: 6.00 Build 0)  -->
<svg version="1.1" id="Layer_1" xmlns="http://www.w3.org/2000/svg" xmlns:xlink="http://www.w3.org/1999/xlink" x="0px" y="0px"
	 viewBox="0 0 100 100" style="enable-background:new 0 0 100 100;" xml:space="preserve">
<style type="text/css">
	.st0{fill:none;stroke:#000000;stroke-miterlimit:10;}
	.st1{fill:none;stroke:#000000;stroke-linecap:round;stroke-miterlimit:10;}
	.st2{fill:none;stroke:#000000;stroke-miterlimit:10;stroke-dasharray:2.1126,2.1126;}
	.st3{fill:none;stroke:#000000;stroke-linecap:round;stroke-linejoin:round;stroke-miterlimit:10;}
</style>
<g>
	<g>
		<path class="st0" d="M53.5,24.6l-24,24L16.3,35.5l10.9-10.9C34.4,17.4,46.2,17.4,53.5,24.6L53.5,24.6z"/>

			<rect x="56.7" y="28.9" transform="matrix(0.7071 -0.7071 0.7071 0.7071 -22.4443 59.735)" class="st0" width="8.4" height="56.2"/>
	</g>
	<polyline class="st0" points="52.6,54.6 41.4,65.7 42.5,66.9 39.7,77.9 28.8,80.8 36.9,72.8 28.8,64.7 20.8,72.8 20.6,72.6
		23.4,61.6 34.4,58.8 35.6,60 46.8,48.8 	"/>
	<polyline class="st0" points="58.5,48.6 66.2,40.9 67.4,42.1 78.3,39.2 81.2,28.3 81,28.1 73,36.1 65,28.1 73.1,20 62.2,22.9
		59.3,34 60.5,35.1 52.7,42.9 	"/>
</g>
</svg>
