<svg id="Layer_1" data-name="Layer 1" xmlns="http://www.w3.org/2000/svg" width="300" height="300" viewBox="0 0 300 300"><title>Artboard 1 copy 10</title><path d="M110.08,147.86,83.86,121.65l21.43-21.43a36.63,36.63,0,0,1,51.8,0l.32.32ZM85.14,121.65l24.94,24.94,46-46.05a35.72,35.72,0,0,0-50.19.32Z"/><path d="M203.95,208.31l-77.8-77.8,12.2-12.2,77.8,77.8Zm-76.52-77.8L203.95,207l10.92-10.92L138.35,119.6Z"/><path d="M107.36,210.52,123.84,194l-15-15-15.6,15.6-.91-.91L98,172l.26-.07,21.53-5.61,2.22,2.22,47.63-47.63-2.15-2.15.06-.25,5.65-21.73,23.21-6.25-16.72,16.72,15,15,15.6-15.6.79.79-5.67,21.78-.26.07-21.53,5.6-2.1-2.1L133.9,180.39l2,2-.06.25-5.47,21.67-.26.07Zm1.52-32.72L125.12,194,110.4,208.76l19.24-5.17,5.27-20.91-2.3-2.3,48.91-48.91,2.38,2.38,20.77-5.41,5.26-20.19L194.69,123.5l-16.24-16.24,15-15L174,97.52l-5.45,21,2.42,2.42L122,169.81l-2.5-2.5-20.77,5.41-5.34,20.51Z"/></svg>