<svg id="Layer_1" data-name="Layer 1" xmlns="http://www.w3.org/2000/svg" width="300" height="300" viewBox="0 0 300 300"><title>Artboard 1 copy</title><path d="M199.45,187.33h-.79V75.82a10.9,10.9,0,0,0-11.11-10.65H117.74a10.9,10.9,0,0,0-11.11,10.65V187.33h-.79V75.82a11.68,11.68,0,0,1,11.9-11.41h69.82a11.68,11.68,0,0,1,11.9,11.41Z"/><path d="M180.72,206.31H124.56c-10.33,0-18.73-8.06-18.73-18s8.4-18,18.73-18h56.16c10.33,0,18.73,8.06,18.73,18S191,206.31,180.72,206.31Zm-56.16-35.17c-9.89,0-17.94,7.72-17.94,17.2s8,17.2,17.94,17.2h56.16c9.89,0,17.94-7.72,17.94-17.2s-8-17.2-17.94-17.2Z"/><rect x="120" y="111" width="66" height="1"/><rect x="120" y="141" width="66" height="1"/><polygon points="171.9 233.39 152.64 220.91 133.39 233.39 132.95 232.76 152.64 220 172.34 232.76 171.9 233.39"/><rect x="152" y="206" width="1" height="30"/><polygon points="217 189 88 189 88 165 89 165 89 188 216 188 216 165 217 165 217 189"/></svg>