<?xml version="1.0" encoding="utf-8"?>
<!-- Generator: Adobe Illustrator 22.0.0, SVG Export Plug-In . SVG Version: 6.00 Build 0)  -->
<svg version="1.1" id="Layer_1" xmlns="http://www.w3.org/2000/svg" xmlns:xlink="http://www.w3.org/1999/xlink" x="0px" y="0px"
	 viewBox="0 0 100 100" style="enable-background:new 0 0 100 100;" xml:space="preserve">
<style type="text/css">
	.st0{fill:none;stroke:#000000;stroke-miterlimit:10;}
	.st1{fill:none;stroke:#000000;stroke-linecap:round;stroke-miterlimit:10;}
	.st2{fill:none;stroke:#000000;stroke-miterlimit:10;stroke-dasharray:2.1126,2.1126;}
	.st3{fill:none;stroke:#000000;stroke-linecap:round;stroke-linejoin:round;stroke-miterlimit:10;}
</style>
<g>
	<line class="st0" x1="35.1" y1="30.8" x2="65.4" y2="30.8"/>
	<g>
		<path class="st0" d="M28.3,68.2V13.8c0-3,2.4-5.4,5.4-5.4h32.7c3,0,5.4,2.4,5.4,5.4v54.4"/>
		<path class="st0" d="M63.1,77.2H36.9c-4.7,0-8.6-3.8-8.6-8.6v0c0-4.7,3.8-8.6,8.6-8.6h26.3c4.7,0,8.6,3.8,8.6,8.6v0
			C71.7,73.4,67.9,77.2,63.1,77.2z"/>
		<line class="st0" x1="35.1" y1="45.7" x2="65.4" y2="45.7"/>
		<polyline class="st0" points="40.9,90.5 50,84.3 59.1,90.5 		"/>
		<line class="st0" x1="49.8" y1="77.2" x2="49.8" y2="91.6"/>
		<polyline class="st0" points="19.9,56.7 19.9,68.5 80.1,68.5 80.1,56.7 		"/>
	</g>
</g>
</svg>
