<?xml version="1.0" encoding="utf-8"?>
<!-- Generator: Adobe Illustrator 20.1.0, SVG Export Plug-In . SVG Version: 6.00 Build 0)  -->
<svg version="1.1" id="Layer_1" xmlns="http://www.w3.org/2000/svg" xmlns:xlink="http://www.w3.org/1999/xlink" x="0px" y="0px"
	 viewBox="0 0 200 200" style="enable-background:new 0 0 200 200;" xml:space="preserve">
<style type="text/css">
	.st0{fill:none;stroke:#000000;stroke-miterlimit:10;}
</style>
<title>Artboard 1 copy 2</title>
<g>
	<path class="st0" d="M100,32.6c0.2,1.3,4.5,26.5,4.5,36.1c0,14.7-7.8,25.1-19.3,29.3l3.6,66.7c0.2,3.7-2.7,6.9-6.4,7.1
		c-0.1,0-0.2,0-0.3,0h-18c-3.7,0-6.7-3-6.7-6.8c0-0.1,0-0.2,0-0.3L61,97.9c-11.5-4.2-19.3-14.7-19.3-29.3c0-9.6,4.3-34.8,4.5-36.1
		c0.9-5.7,12.7-5.8,13.4,0.3v39.5c0.4,1,4.2,0.9,4.5,0c0.4-7.1,2.2-39,2.2-39.7c0.9-5.8,12.5-5.8,13.4,0c0.1,0.8,1.8,32.6,2.2,39.7
		c0.2,0.9,4.2,1,4.5,0V32.9C87.3,26.8,99.1,26.9,100,32.6z M133.4,112.6l-4.2,51.8c-0.3,3.7,2.4,6.9,6.1,7.3c0.2,0,0.4,0,0.6,0h15.7
		c3.7,0,6.7-3,6.7-6.7c0,0,0,0,0,0V35c0-3.7-3-6.7-6.7-6.7l0,0C128.5,28.3,89.6,78.3,133.4,112.6L133.4,112.6z"/>
</g>
</svg>
