<svg id="Layer_1" data-name="Layer 1" xmlns="http://www.w3.org/2000/svg" viewBox="0 0 100 100"><defs><style>.cls-1{fill:none;stroke:#000;stroke-miterlimit:10;}</style></defs><title>Restaurant-in-house</title><path class="cls-1" d="M50,24.65c.08.48,1.69,10,1.69,13.57,0,5.53-2.93,9.44-7.26,11l1.36,25.09A2.57,2.57,0,0,1,43.38,77H36.5A2.53,2.53,0,0,1,34,74.44v-.11l1.35-25.12c-4.32-1.58-7.26-5.53-7.26-11,0-3.62,1.62-13.09,1.7-13.58.33-2.15,4.77-2.18,5,.11V39.58c.15.37,1.57.34,1.69,0,.15-2.67.83-14.67.83-14.93.33-2.19,4.7-2.19,5,0,0,.3.68,12.26.83,14.93.08.34,1.58.37,1.69,0V24.76C45.22,22.46,49.66,22.5,50,24.65ZM62.56,54.73,61,74.22A2.56,2.56,0,0,0,63.28,77h6.13a2.52,2.52,0,0,0,2.52-2.52h0V25.55A2.52,2.52,0,0,0,69.41,23h0c-8.69,0-23.32,18.8-6.85,31.7Z"/></svg>
