<svg id="Layer_1" data-name="Layer 1" xmlns="http://www.w3.org/2000/svg" width="300" height="300" viewBox="0 0 300 300"><title>Artboard 1 copy 4</title><path d="M128,167H97v-.71A15.51,15.51,0,0,1,108.86,151a9.61,9.61,0,0,1-5.92-8.74A9.26,9.26,0,1,1,115.78,151,15.84,15.84,0,0,1,128,166.29Zm-30.74-1H127a15.28,15.28,0,0,0-12.84-14.54l-1.84-.27,1.81-.44a8.72,8.72,0,0,0,6.61-8.44,8.6,8.6,0,1,0-17.2-.06,8.76,8.76,0,0,0,6.61,8.5l1.81.43-1.85.28A15.27,15.27,0,0,0,97.26,166Z"/><path d="M109,191H78v-.45a15.7,15.7,0,0,1,12-15.34,9.58,9.58,0,0,1-5.84-8.79,9.28,9.28,0,1,1,18.57.08,9.49,9.49,0,0,1-5.82,8.71A15.74,15.74,0,0,1,109,190.55Zm-30.4-1h29.72a15.3,15.3,0,0,0-12.84-14.46l-1.85-.2,1.81-.4a8.72,8.72,0,0,0,6.61-8.45,8.6,8.6,0,1,0-17.2-.07A8.79,8.79,0,0,0,91.47,175l1.81.43-1.84.15A15.19,15.19,0,0,0,78.6,190Z"/><path d="M203,167H172v-.71A15.85,15.85,0,0,1,184.23,151a9.36,9.36,0,1,1,12.92-8.73,9.7,9.7,0,0,1-6,8.74A15.52,15.52,0,0,1,203,166.29Zm-30-1h29.72a15.27,15.27,0,0,0-12.84-14.53l-1.85-.27,1.81-.44a8.76,8.76,0,0,0,6.61-8.5,8.6,8.6,0,1,0-17.2.05,8.72,8.72,0,0,0,6.61,8.43l1.81.43-1.84.28A15.28,15.28,0,0,0,173,166Z"/><path d="M222,191H191v-.45a15.74,15.74,0,0,1,12.07-15.35,9.48,9.48,0,0,1-5.81-8.71,9.29,9.29,0,1,1,18.59-.08,9.6,9.6,0,0,1-5.86,8.79,15.7,15.7,0,0,1,12,15.34Zm-30.32-1H221.4a15.18,15.18,0,0,0-12.84-14.45l-1.84-.2,1.81-.4a8.78,8.78,0,0,0,6.61-8.54,8.6,8.6,0,1,0-17.2.08,8.74,8.74,0,0,0,6.61,8.46l1.81.43-1.85.15A15.3,15.3,0,0,0,191.68,190Z"/><path d="M197.21,196H102.63l22.29-47h50Zm-93.48-.69h92.39l-21.63-45.64H125.36Z"/><path d="M175.36,136.22H124.64V104h50.71Zm-50-.69h49.33v-30.8H125.34Z"/><path d="M162,136H138v-.21a12.14,12.14,0,0,1,9-11.46,7,7,0,1,1,6,0,12.15,12.15,0,0,1,9,11.46Zm-23-1H161a11.31,11.31,0,0,0-9.53-10.45l-1.53-.1-1.48,0A11.37,11.37,0,0,0,139,135Zm11-23.52a6.37,6.37,0,0,0-6.35,6.38,6.43,6.43,0,0,0,4.88,6.22l1.48.35,1.45-.34a6.47,6.47,0,0,0,4.88-6.27A6.35,6.35,0,0,0,150,111.48Z"/><rect x="163" y="109" width="7" height="1"/></svg>