<svg id="Layer_1" data-name="Layer 1" xmlns="http://www.w3.org/2000/svg" viewBox="0 0 100 100"><defs><style>.cls-1{fill:none;stroke:#000;stroke-miterlimit:10;}</style></defs><title>Salas-de-juntas-con-equipo-de-videoconferrencia-y-apple-tv</title><path class="cls-1" d="M28.8,50.6a5.46,5.46,0,0,0,4.1-5.2,5.3,5.3,0,1,0-6.5,5.2,9.38,9.38,0,0,0-7.8,9h18A9.38,9.38,0,0,0,28.8,50.6Z"/><path class="cls-1" d="M17.7,65a5.46,5.46,0,0,0,4.1-5.2,5.3,5.3,0,0,0-10.6,0,5.46,5.46,0,0,0,4.1,5.3,9.07,9.07,0,0,0-7.8,9h18A9.09,9.09,0,0,0,17.7,65Z"/><path class="cls-1" d="M71.2,50.6a5.46,5.46,0,0,1-4.1-5.2,5.3,5.3,0,1,1,6.5,5.2,9.38,9.38,0,0,1,7.8,9h-18A9.38,9.38,0,0,1,71.2,50.6Z"/><path class="cls-1" d="M82.3,65a5.46,5.46,0,0,1-4.1-5.2,5.3,5.3,0,0,1,10.6,0,5.46,5.46,0,0,1-4.1,5.3,9.07,9.07,0,0,1,7.8,9h-18A9.09,9.09,0,0,1,82.3,65Z"/><polygon class="cls-1" points="77.6 77 22.3 77 35.3 49.6 64.6 49.6 77.6 77"/><rect class="cls-1" x="35.2" y="23" width="29.6" height="18.7"/><path class="cls-1" d="M49.1,34.7a4,4,0,0,1-3-3.8,4,4,0,0,1,8,0,3.87,3.87,0,0,1-3,3.8,6.76,6.76,0,0,1,5.8,6.6H43.3A6.84,6.84,0,0,1,49.1,34.7Z"/><line class="cls-1" x1="57.9" y1="26" x2="62.1" y2="26"/></svg>
