<svg id="Layer_1" data-name="Layer 1" xmlns="http://www.w3.org/2000/svg" width="300" height="300" viewBox="0 0 300 300"><title>Artboard 1 copy 3</title><rect x="108.35" y="154.56" width="35.58" height="0.66" transform="translate(-71.81 181.68) rotate(-58.55)"/><path d="M159.79,147.4,117,134.57l4.48-14.94,42.79,12.83Zm-42-13.27,41.53,12.45,4.1-13.67-41.53-12.45Z"/><path d="M177.61,137.15l-66.06-19.8L120.95,86,187,105.81Zm-65.24-20.25,64.8,19.42,9-30.08-64.8-19.42Z"/><path d="M191.88,135.91l-12.23-7.85,5.61-18.71,14.53.17Zm-11.45-8.14,11.07,7.11,7.41-24.7L185.75,110Z"/><path d="M110,213.56h-9.77v-45H110a22.5,22.5,0,0,1,0,45Zm-9.11-.66H110a21.84,21.84,0,0,0,0-43.67h-9.11Z"/><rect x="109" y="169" width="1" height="45"/><path d="M119.52,113.8a2.22,2.22,0,1,1,2.22-2.22A2.23,2.23,0,0,1,119.52,113.8Zm0-3.79a1.56,1.56,0,1,0,1.56,1.56A1.56,1.56,0,0,0,119.52,110Z"/></svg>