<?xml version="1.0" encoding="utf-8"?>
<!-- Generator: Adobe Illustrator 22.0.0, SVG Export Plug-In . SVG Version: 6.00 Build 0)  -->
<svg version="1.1" id="Layer_1" xmlns="http://www.w3.org/2000/svg" xmlns:xlink="http://www.w3.org/1999/xlink" x="0px" y="0px"
	 viewBox="0 0 100 100" style="enable-background:new 0 0 100 100;" xml:space="preserve">
<style type="text/css">
	.st0{fill:none;stroke:#000000;stroke-miterlimit:10;}
	.st1{fill:none;stroke:#000000;stroke-linecap:round;stroke-miterlimit:10;}
	.st2{fill:none;stroke:#000000;stroke-miterlimit:10;stroke-dasharray:2.1126,2.1126;}
	.st3{fill:none;stroke:#000000;stroke-linecap:round;stroke-linejoin:round;stroke-miterlimit:10;}
</style>
<g>
	<g>
		<path class="st0" d="M67.6,64.7c-3.8-0.9-6.7-4.6-6.7-8.7c0-4.8,3.9-8.8,8.7-8.8s8.7,3.8,8.7,8.6c0,4.1-2.8,8.1-6.7,9
			c7.2,1,12.7,8.1,12.7,15.1H54.8C54.8,72.8,60.4,65.6,67.6,64.7z"/>
	</g>
	<path class="st0" d="M28.4,64.7c-3.8-0.9-6.7-4.6-6.7-8.7c0-4.8,3.9-8.8,8.7-8.8s8.7,3.8,8.7,8.6c0,4.1-2.8,8.1-6.7,9
		c7.2,1,12.7,8.1,12.7,15.1H15.7C15.7,72.8,21.2,65.6,28.4,64.7z"/>
	<g>
		<polygon class="st0" points="81.2,41.4 60.4,41.4 57.2,47.1 53.4,41.4 47.6,41.4 47.6,20.2 81.2,20.2 		"/>
		<line class="st0" x1="53.3" y1="28" x2="75.6" y2="28"/>
		<line class="st0" x1="53.3" y1="34.1" x2="75.6" y2="34.1"/>
	</g>
	<g>
		<polygon class="st0" points="30.4,44.7 39.3,44.7 40.6,47.1 42.3,44.7 44.7,44.7 44.7,35.6 30.4,35.6 		"/>
	</g>
</g>
</svg>
