<svg id="Layer_1" data-name="Layer 1" xmlns="http://www.w3.org/2000/svg" width="200" height="200" viewBox="0 0 200 200"><title>Artboard 1 copy 4</title><path d="M54.52,101.29a11.35,11.35,0,1,0-5.25,0c-9.42,1.28-16.69,10.2-16.69,19.2H71.21C71.21,111.5,63.94,102.57,54.52,101.29Z" fill="none" stroke="#000" stroke-miterlimit="10"/><path d="M30.82,132.13a11.46,11.46,0,0,0-2.63-22.6,11.34,11.34,0,0,0-11.36,11.33,11.63,11.63,0,0,0,8.74,11.28A19.38,19.38,0,0,0,8.87,151.5H47.51A19.39,19.39,0,0,0,30.82,132.13Z" fill="none" stroke="#000" stroke-miterlimit="10"/><path d="M145.48,101.29a11.35,11.35,0,1,1,5.25,0c9.42,1.28,16.69,10.2,16.69,19.2H128.79C128.79,111.5,136.06,102.57,145.48,101.29Z" fill="none" stroke="#000" stroke-miterlimit="10"/><path d="M169.18,132.13a11.46,11.46,0,0,1,2.63-22.6,11.34,11.34,0,0,1,11.36,11.33,11.63,11.63,0,0,1-8.74,11.28,19.38,19.38,0,0,1,16.69,19.36H152.49A19.39,19.39,0,0,1,169.18,132.13Z" fill="none" stroke="#000" stroke-miterlimit="10"/><polygon points="159.25 157.93 40.54 157.93 68.42 99.09 131.37 99.09 159.25 157.93" fill="none" stroke="#000" stroke-miterlimit="10"/><rect x="68.24" y="42.07" width="63.52" height="40" fill="none" stroke="#000" stroke-miterlimit="10"/><path d="M98,67.28a8.51,8.51,0,1,1,3.93,0A14.6,14.6,0,0,1,114.45,81.5H85.55A14.6,14.6,0,0,1,98,67.28Z" fill="none" stroke="#000" stroke-miterlimit="10"/><line x1="117" y1="48.5" x2="126" y2="48.5" fill="none" stroke="#000" stroke-miterlimit="10"/></svg>