<svg id="Layer_1" data-name="Layer 1" xmlns="http://www.w3.org/2000/svg" width="200" height="200" viewBox="0 0 200 200"><title>Artboard 1 copy 11</title><path d="M137.7,132c-8.2-1.94-14.31-9.9-14.31-18.69A18.87,18.87,0,0,1,142,94.39a18.48,18.48,0,0,1,18.61,18.46c0,8.79-6.11,17.28-14.31,19.22,15.43,2.1,27.33,17.44,27.33,32.44H110.37C110.37,149.5,122.27,134.09,137.7,132Z" fill="none" stroke="#000" stroke-miterlimit="10"/><path d="M53.7,132c-8.2-1.94-14.31-9.9-14.31-18.69A18.87,18.87,0,0,1,58,94.39a18.48,18.48,0,0,1,18.61,18.46c0,8.79-6.11,17.28-14.31,19.22,15.43,2.1,27.33,17.44,27.33,32.44H26.37C26.37,149.5,38.27,134.09,53.7,132Z" fill="none" stroke="#000" stroke-miterlimit="10"/><polygon points="166.8 82.14 122.27 82.14 115.46 94.28 107.21 82.14 94.89 82.14 94.89 36.64 166.8 36.64 166.8 82.14" fill="none" stroke="#000" stroke-miterlimit="10"/><line x1="107" y1="53.5" x2="155" y2="53.5" fill="none" stroke="#000" stroke-miterlimit="10"/><line x1="107" y1="66.5" x2="155" y2="66.5" fill="none" stroke="#000" stroke-miterlimit="10"/><polygon points="58 89.1 77 89.1 79.9 94.28 83.42 89.1 88.67 89.1 88.67 69.7 58 69.7 58 89.1" fill="none" stroke="#000" stroke-miterlimit="10"/></svg>