<svg id="Layer_1" data-name="Layer 1" xmlns="http://www.w3.org/2000/svg" width="200" height="200" viewBox="0 0 200 200"><title>Artboard 1 copy 8</title><path d="M137.85,125.58a6.16,6.16,0,0,1,1.26,9.68h0c-8.86,8.86-10.49,19.72-19.45,19.45-14.93-.45-37.23-18.82-52-33.6C54,107.43,35.89,83,34.06,69.12c-1.33-10.06,9.5-9.5,19.45-19.45h0a6.16,6.16,0,0,1,9.68,1.26l9.33,16a6.16,6.16,0,0,1-1,7.45l-2.67,2.67a6.16,6.16,0,0,0-1.18,7.05c2.9,6,8.73,17.1,14.28,22.65,5,5,15.68,11.45,21.56,14.82a6.15,6.15,0,0,0,7.41-1l3.4-3.4a6.16,6.16,0,0,1,7.45-1Z" fill="none" stroke="#000" stroke-miterlimit="10"/><polygon points="166.05 90.78 121.52 90.78 114.71 102.93 106.46 90.78 94.14 90.78 94.14 45.29 166.05 45.29 166.05 90.78" fill="none" stroke="#000" stroke-miterlimit="10"/><line x1="106" y1="60.5" x2="154" y2="60.5" fill="none" stroke="#000" stroke-miterlimit="10"/><line x1="106" y1="73.5" x2="154" y2="73.5" fill="none" stroke="#000" stroke-miterlimit="10"/></svg>