<svg id="Layer_1" data-name="Layer 1" xmlns="http://www.w3.org/2000/svg" width="200" height="200" viewBox="0 0 200 200"><title>Artboard 1 copy 9</title><path d="M127.7,95.63a18.92,18.92,0,0,1-14.31-18.37A18.61,18.61,0,1,1,150.61,77c0,8.79-6.11,16.67-14.31,18.62,15.43,2.1,27.33,16.84,27.33,31.84H100.37C100.37,112.5,112.27,97.73,127.7,95.63Z" fill="none" stroke="#000" stroke-miterlimit="10"/><path d="M63.7,95.63A18.92,18.92,0,0,1,49.39,77.26,18.61,18.61,0,1,1,86.61,77c0,8.79-6.11,16.67-14.31,18.62,15.43,2.1,27.33,16.84,27.33,31.84H36.37C36.37,112.5,48.27,97.73,63.7,95.63Z" fill="none" stroke="#000" stroke-miterlimit="10"/><path d="M95.7,109.63A18.92,18.92,0,0,1,81.39,91.26,18.61,18.61,0,1,1,118.61,91c0,8.79-6.11,16.67-14.31,18.62,15.43,2.1,27.33,16.84,27.33,31.84H68.37C68.37,126.5,80.27,111.73,95.7,109.63Z" fill="none" stroke="#000" stroke-miterlimit="10"/></svg>