<svg id="Layer_1" data-name="Layer 1" xmlns="http://www.w3.org/2000/svg" width="200" height="200" viewBox="0 0 200 200"><title>Artboard 1 copy 2</title><path d="M11.2,135.48V89.17A14.57,14.57,0,0,1,25.77,74.6H174.23A14.57,14.57,0,0,1,188.8,89.17v46.3a4,4,0,0,1-4,4H15.2A4,4,0,0,1,11.2,135.48Z" fill="none" stroke="#000" stroke-miterlimit="10"/><path d="M46.85,165.29V125.77A10.36,10.36,0,0,1,57.22,115.4h85.57a10.36,10.36,0,0,1,10.36,10.36v39.53Z" fill="none" stroke="#000" stroke-miterlimit="10"/><path d="M46.85,74.6V45.07A10.36,10.36,0,0,1,57.22,34.71h85.57a10.36,10.36,0,0,1,10.36,10.36V74.6Z" fill="none" stroke="#000" stroke-miterlimit="10"/><line x1="25" y1="88.5" x2="47" y2="88.5" fill="none" stroke="#000" stroke-miterlimit="10"/></svg>