<svg id="Layer_1" data-name="Layer 1" xmlns="http://www.w3.org/2000/svg" width="42" height="42" viewBox="0 0 42 42"><title>Artboard 1 copy 6</title><path d="M30.15,40.92H11.85A10.26,10.26,0,0,1,1.62,30.69V11.31A10.26,10.26,0,0,1,11.85,1.08H30.15A10.26,10.26,0,0,1,40.38,11.31V30.69A10.26,10.26,0,0,1,30.15,40.92Zm-1-3a8.33,8.33,0,0,0,8.3-8.3V12.36a8.33,8.33,0,0,0-8.3-8.3H12.89a8.33,8.33,0,0,0-8.3,8.3V29.64a8.33,8.33,0,0,0,8.3,8.3Z" fill="#fff"/><path d="M31.74,20.85A10.68,10.68,0,1,1,21.06,10.17,10.68,10.68,0,0,1,31.74,20.85ZM21,13.86a7,7,0,1,0,7,7A7,7,0,0,0,21,13.86Z" fill="#fff"/><circle cx="31.91" cy="10" r="2.53" fill="#fff"/></svg>