<svg id="Layer_1" data-name="Layer 1" xmlns="http://www.w3.org/2000/svg" width="42" height="42" viewBox="0 0 42 42"><title>Artboard 1 copy 5</title><path d="M38.59,31.16a.59.59,0,0,0,.59-.62c0-.44-.27-.65-.81-.65h-.88v2.3h.33v-1h.42l.63,1h.35l-.68-1Zm-.38-.23h-.38v-.78h.49c.25,0,.54,0,.54.37S38.56,30.93,38.21,30.93Z" fill="#fff"/><path d="M38.24,28.86A2.18,2.18,0,1,0,40.43,31,2.16,2.16,0,0,0,38.24,28.86Zm0,4.07A1.89,1.89,0,1,1,40.11,31,1.85,1.85,0,0,1,38.24,32.93Z" fill="#fff"/><path d="M32.21,4.46H4A2.41,2.41,0,0,0,1.57,6.84V35.16A2.42,2.42,0,0,0,4,37.54h28.2a2.42,2.42,0,0,0,2.45-2.39V6.84A2.42,2.42,0,0,0,32.21,4.46ZM11.39,32.65H6.48V16.86h4.91ZM8.94,14.7a2.85,2.85,0,1,1,2.84-2.85A2.84,2.84,0,0,1,8.94,14.7ZM29.77,32.65H24.86V25c0-1.83,0-4.19-2.55-4.19s-2.94,2-2.94,4.06v7.81h-4.9V16.86h4.7V19h.07a5.16,5.16,0,0,1,4.64-2.55c5,0,5.89,3.27,5.89,7.52Z" fill="#fff"/></svg>