<svg xmlns="http://www.w3.org/2000/svg" xmlns:xlink="http://www.w3.org/1999/xlink" viewBox="0 0 111.21 32.36"><defs><style>.cls-1{fill:none;}.cls-2{clip-path:url(#clip-path);}.cls-3{fill:#fff;}</style><clipPath id="clip-path"><rect class="cls-1" width="111.21" height="32.36"/></clipPath></defs><title>logoFullWhite2</title><g id="Layer_2" data-name="Layer 2"><g id="Layer_1-2" data-name="Layer 1"><g class="cls-2"><g class="cls-2"><path class="cls-3" d="M7.07,8.3h7.19c4,0,5.52,2.58,5.52,5.22s-1.52,5.22-5.52,5.22H10.61v5.84H7.07ZM10.58,16H13.3c1.61,0,3.08-.37,3.08-2.44s-1.47-2.44-3.08-2.44H10.61Z"/><path class="cls-3" d="M27.81,24.58a6.07,6.07,0,0,1-2.37-.47,6.18,6.18,0,0,1-2-1.34,6.45,6.45,0,0,1-1.88-4.49V7.82h3.77V18.26a2.47,2.47,0,0,0,2.48,2.46h0a2.23,2.23,0,0,0,.94-.2,2.57,2.57,0,0,0,.78-.55,2.32,2.32,0,0,0,.54-.79,2.65,2.65,0,0,0,.18-1V7.82h3.82V18.18a6.09,6.09,0,0,1-.46,2.46A6.34,6.34,0,0,1,30.32,24a6,6,0,0,1-2.4.54Z"/><path class="cls-3" d="M36.7,8.3h7.51c3,0,5.09,1,5.09,4a3.49,3.49,0,0,1-2.17,3.4,3.94,3.94,0,0,1,2.94,4.16c0,3.31-2.75,4.72-5.63,4.72H36.7Zm3.51,6.59h3.55c1.25,0,2.14-.57,2.14-1.94,0-1.53-1.16-1.87-2.41-1.87H40.21Zm0,6.91H44c1.36,0,2.59-.46,2.59-2.14s-1-2.33-2.52-2.33H40.21Z"/><polygon class="cls-3" points="52.1 24.46 52.1 8.23 55.54 8.23 55.54 21.45 63.71 21.45 63.71 24.46 52.1 24.46"/><rect class="cls-3" x="65.68" y="8.3" width="3.51" height="16.28"/><path class="cls-3" d="M79.51,24.62a8.26,8.26,0,0,1,0-16.51,8,8,0,0,1,7,4.22c-1.36.73-1.47.8-3,1.55a4.63,4.63,0,0,0-4-2.35,4.84,4.84,0,0,0,0,9.67,4.64,4.64,0,0,0,4.15-2.53c1.52.8,1.56.89,3,1.55a8,8,0,0,1-7.15,4.4"/><path class="cls-3" d="M95.93,24.78a8.43,8.43,0,1,1,8.27-8.59q0,.09,0,.18A8.32,8.32,0,0,1,96,24.78h0m-4.86-8.41a4.85,4.85,0,1,0,4.87-5,5,5,0,0,0-4.87,5"/><polygon class="cls-3" points="31.69 0 30.09 2.96 108.31 2.96 108.31 29.45 2.86 29.45 2.86 2.96 26.73 2.96 28.3 0 0 0 0 32.36 111.21 32.36 111.21 0 31.69 0"/></g></g></g></g></svg>