<svg id="Layer_1" data-name="Layer 1" xmlns="http://www.w3.org/2000/svg" xmlns:xlink="http://www.w3.org/1999/xlink" viewBox="0 0 117.08 40"><defs><style>.cls-1{fill:none;}.cls-2{clip-path:url(#clip-path);}.cls-3{fill:#fff;}</style><clipPath id="clip-path"><rect class="cls-1" x="2.93" y="3.82" width="111.21" height="32.36"/></clipPath></defs><title>logoFullWhite</title><g class="cls-2"><g class="cls-2"><path class="cls-3" d="M10,12.12h7.19c4,0,5.52,2.58,5.52,5.22s-1.52,5.22-5.52,5.22H13.54V28.4H10Zm3.51,7.66h2.72c1.61,0,3.08-.37,3.08-2.44s-1.47-2.44-3.08-2.44H13.54Z"/><path class="cls-3" d="M30.74,28.4a6.07,6.07,0,0,1-2.37-.47,6.18,6.18,0,0,1-2-1.34,6.45,6.45,0,0,1-1.88-4.49V11.64h3.77V22.08a2.47,2.47,0,0,0,2.48,2.46h0a2.23,2.23,0,0,0,.94-.2,2.57,2.57,0,0,0,.78-.55A2.32,2.32,0,0,0,33,23a2.65,2.65,0,0,0,.18-1V11.64H37V22a6.09,6.09,0,0,1-.46,2.46,6.34,6.34,0,0,1-3.29,3.41,6,6,0,0,1-2.4.54Z"/><path class="cls-3" d="M39.63,12.12h7.51c3,0,5.09,1,5.09,4a3.49,3.49,0,0,1-2.17,3.4A3.94,3.94,0,0,1,53,23.68c0,3.31-2.75,4.72-5.63,4.72H39.63Zm3.51,6.59h3.55c1.25,0,2.14-.57,2.14-1.94,0-1.53-1.16-1.87-2.41-1.87H43.14Zm0,6.91h3.75c1.36,0,2.59-.46,2.59-2.14s-1-2.33-2.52-2.33H43.14Z"/><polygon class="cls-3" points="55.03 28.28 55.03 12.05 58.47 12.05 58.47 25.27 66.64 25.27 66.64 28.28 55.03 28.28"/><rect class="cls-3" x="68.61" y="12.12" width="3.51" height="16.28"/><path class="cls-3" d="M82.44,28.44a8.26,8.26,0,0,1,0-16.51,8,8,0,0,1,7,4.22c-1.36.73-1.47.8-3,1.55a4.63,4.63,0,0,0-4-2.35,4.84,4.84,0,0,0,0,9.67,4.64,4.64,0,0,0,4.15-2.53c1.52.8,1.56.89,3,1.55a8,8,0,0,1-7.15,4.4"/><path class="cls-3" d="M98.86,28.6A8.43,8.43,0,1,1,107.13,20q0,.09,0,.18A8.32,8.32,0,0,1,98.9,28.6h0M94,20.19a4.85,4.85,0,1,0,4.87-5,5,5,0,0,0-4.87,5"/><polygon class="cls-3" points="34.62 3.82 33.02 6.78 111.24 6.78 111.24 33.27 5.79 33.27 5.79 6.78 29.66 6.78 31.23 3.82 2.93 3.82 2.93 36.18 114.14 36.18 114.14 3.82 34.62 3.82"/></g></g></svg>