<svg id="Layer_1" data-name="Layer 1" xmlns="http://www.w3.org/2000/svg" xmlns:xlink="http://www.w3.org/1999/xlink" width="200" height="200" viewBox="0 0 200 200"><defs><clipPath id="clip-path"><rect y="-0.18" width="100.09" height="100.09" fill="none"/></clipPath><clipPath id="clip-path-2"><rect x="100.09" y="-0.18" width="100.09" height="100.09" fill="none"/></clipPath><clipPath id="clip-path-3"><rect y="99.91" width="100.09" height="100.09" fill="none"/></clipPath><clipPath id="clip-path-4"><rect x="100.09" y="99.91" width="100.09" height="100.09" fill="none"/></clipPath></defs><title>Artboard 1</title><g clip-path="url(#clip-path)"><path d="M12,86.9h1v1H12v-1"/><path d="M12,61.88h1v1H12v-1"/><path d="M12,36.85h1v1H12v-1"/><path d="M12,11.83h1v1H12v-1"/><path d="M37,86.9h1v1H37v-1"/><path d="M37,61.88h1v1H37v-1"/><path d="M37,36.85h1v1H37v-1"/><path d="M37,11.83h1v1H37v-1"/><path d="M62.06,86.9h1v1h-1v-1"/><path d="M62.06,61.88h1v1h-1v-1"/><path d="M62.06,36.85h1v1h-1v-1"/><path d="M62.06,11.83h1v1h-1v-1"/><path d="M87.08,86.9h1v1h-1v-1"/><path d="M87.08,61.88h1v1h-1v-1"/><path d="M87.08,36.85h1v1h-1v-1"/><path d="M87.08,11.83h1v1h-1v-1"/></g><g clip-path="url(#clip-path-2)"><path d="M112.1,86.9h1v1h-1v-1"/><path d="M112.1,61.88h1v1h-1v-1"/><path d="M112.1,36.85h1v1h-1v-1"/><path d="M112.1,11.83h1v1h-1v-1"/><path d="M137.12,86.9h1v1h-1v-1"/><path d="M137.12,61.88h1v1h-1v-1"/><path d="M137.12,36.85h1v1h-1v-1"/><path d="M137.12,11.83h1v1h-1v-1"/><path d="M162.15,86.9h1v1h-1v-1"/><path d="M162.15,61.88h1v1h-1v-1"/><path d="M162.15,36.85h1v1h-1v-1"/><path d="M162.15,11.83h1v1h-1v-1"/><path d="M187.17,86.9h1v1h-1v-1"/><path d="M187.17,61.88h1v1h-1v-1"/><path d="M187.17,36.85h1v1h-1v-1"/><path d="M187.17,11.83h1v1h-1v-1"/></g><g clip-path="url(#clip-path-3)"><path d="M12,187h1v1H12v-1"/><path d="M12,162h1v1H12v-1"/><path d="M12,136.94h1v1H12v-1"/><path d="M12,111.92h1v1H12v-1"/><path d="M37,187h1v1H37v-1"/><path d="M37,162h1v1H37v-1"/><path d="M37,136.94h1v1H37v-1"/><path d="M37,111.92h1v1H37v-1"/><path d="M62.06,187h1v1h-1v-1"/><path d="M62.06,162h1v1h-1v-1"/><path d="M62.06,136.94h1v1h-1v-1"/><path d="M62.06,111.92h1v1h-1v-1"/><path d="M87.08,187h1v1h-1v-1"/><path d="M87.08,162h1v1h-1v-1"/><path d="M87.08,136.94h1v1h-1v-1"/><path d="M87.08,111.92h1v1h-1v-1"/></g><g clip-path="url(#clip-path-4)"><path d="M112.1,187h1v1h-1v-1"/><path d="M112.1,162h1v1h-1v-1"/><path d="M112.1,136.94h1v1h-1v-1"/><path d="M112.1,111.92h1v1h-1v-1"/><path d="M137.12,187h1v1h-1v-1"/><path d="M137.12,162h1v1h-1v-1"/><path d="M137.12,136.94h1v1h-1v-1"/><path d="M137.12,111.92h1v1h-1v-1"/><path d="M162.15,187h1v1h-1v-1"/><path d="M162.15,162h1v1h-1v-1"/><path d="M162.15,136.94h1v1h-1v-1"/><path d="M162.15,111.92h1v1h-1v-1"/><path d="M187.17,187h1v1h-1v-1"/><path d="M187.17,162h1v1h-1v-1"/><path d="M187.17,136.94h1v1h-1v-1"/><path d="M187.17,111.92h1v1h-1v-1"/></g></svg>