<svg id="Layer_1" data-name="Layer 1" xmlns="http://www.w3.org/2000/svg" xmlns:xlink="http://www.w3.org/1999/xlink" width="200" height="200" viewBox="0 0 200 200"><defs><clipPath id="clip-path"><rect y="100" width="50" height="50" transform="translate(-100 150) rotate(-90)" fill="none"/></clipPath><clipPath id="clip-path-2"><rect x="50" y="100" width="50" height="50" transform="translate(-50 200) rotate(-90)" fill="none"/></clipPath><clipPath id="clip-path-3"><rect x="100" y="100" width="50" height="50" transform="translate(0 250) rotate(-90)" fill="none"/></clipPath><clipPath id="clip-path-4"><rect x="150" y="100" width="50" height="50" transform="translate(50 300) rotate(-90)" fill="none"/></clipPath><clipPath id="clip-path-5"><rect y="150" width="50" height="50" transform="translate(-150 200) rotate(-90)" fill="none"/></clipPath><clipPath id="clip-path-6"><rect x="50" y="150" width="50" height="50" transform="translate(-100 250) rotate(-90)" fill="none"/></clipPath><clipPath id="clip-path-7"><rect x="100" y="150" width="50" height="50" transform="translate(-50 300) rotate(-90)" fill="none"/></clipPath><clipPath id="clip-path-8"><rect x="150" y="150" width="50" height="50" transform="translate(0 350) rotate(-90)" fill="none"/></clipPath><clipPath id="clip-path-9"><rect width="50" height="50" transform="translate(0 50) rotate(-90)" fill="none"/></clipPath><clipPath id="clip-path-10"><rect x="50" width="50" height="50" transform="translate(50 100) rotate(-90)" fill="none"/></clipPath><clipPath id="clip-path-11"><rect x="100" width="50" height="50" transform="translate(100 150) rotate(-90)" fill="none"/></clipPath><clipPath id="clip-path-12"><rect x="150" width="50" height="50" transform="translate(150 200) rotate(-90)" fill="none"/></clipPath><clipPath id="clip-path-13"><rect y="50" width="50" height="50" transform="translate(-50 100) rotate(-90)" fill="none"/></clipPath><clipPath id="clip-path-14"><rect x="50" y="50" width="50" height="50" transform="translate(0 150) rotate(-90)" fill="none"/></clipPath><clipPath id="clip-path-15"><rect x="100" y="50" width="50" height="50" transform="translate(50 200) rotate(-90)" fill="none"/></clipPath><clipPath id="clip-path-16"><rect x="150" y="50" width="50" height="50" transform="translate(100 250) rotate(-90)" fill="none"/></clipPath></defs><title>Artboard 1</title><g clip-path="url(#clip-path)"><path d="M6,143.5h.5v.5H6v-.5"/><path d="M6,131h.5v.5H6V131"/><path d="M6,118.5h.5v.5H6v-.5"/><path d="M6,106h.5v.5H6V106"/><path d="M18.5,143.5H19v.5h-.5v-.5"/><path d="M18.5,131H19v.5h-.5V131"/><path d="M18.5,118.5H19v.5h-.5v-.5"/><path d="M18.5,106H19v.5h-.5V106"/><path d="M31,143.5h.5v.5H31v-.5"/><path d="M31,131h.5v.5H31V131"/><path d="M31,118.5h.5v.5H31v-.5"/><path d="M31,106h.5v.5H31V106"/><path d="M43.5,143.5H44v.5h-.5v-.5"/><path d="M43.5,131H44v.5h-.5V131"/><path d="M43.5,118.5H44v.5h-.5v-.5"/><path d="M43.5,106H44v.5h-.5V106"/></g><g clip-path="url(#clip-path-2)"><path d="M56,143.5h.5v.5H56v-.5"/><path d="M56,131h.5v.5H56V131"/><path d="M56,118.5h.5v.5H56v-.5"/><path d="M56,106h.5v.5H56V106"/><path d="M68.5,143.5H69v.5h-.5v-.5"/><path d="M68.5,131H69v.5h-.5V131"/><path d="M68.5,118.5H69v.5h-.5v-.5"/><path d="M68.5,106H69v.5h-.5V106"/><path d="M81,143.5h.5v.5H81v-.5"/><path d="M81,131h.5v.5H81V131"/><path d="M81,118.5h.5v.5H81v-.5"/><path d="M81,106h.5v.5H81V106"/><path d="M93.5,143.5H94v.5h-.5v-.5"/><path d="M93.5,131H94v.5h-.5V131"/><path d="M93.5,118.5H94v.5h-.5v-.5"/><path d="M93.5,106H94v.5h-.5V106"/></g><g clip-path="url(#clip-path-3)"><path d="M106,143.5h.5v.5H106v-.5"/><path d="M106,131h.5v.5H106V131"/><path d="M106,118.5h.5v.5H106v-.5"/><path d="M106,106h.5v.5H106V106"/><path d="M118.5,143.5h.5v.5h-.5v-.5"/><path d="M118.5,131h.5v.5h-.5V131"/><path d="M118.5,118.5h.5v.5h-.5v-.5"/><path d="M118.5,106h.5v.5h-.5V106"/><path d="M131,143.5h.5v.5H131v-.5"/><path d="M131,131h.5v.5H131V131"/><path d="M131,118.5h.5v.5H131v-.5"/><path d="M131,106h.5v.5H131V106"/><path d="M143.5,143.5h.5v.5h-.5v-.5"/><path d="M143.5,131h.5v.5h-.5V131"/><path d="M143.5,118.5h.5v.5h-.5v-.5"/><path d="M143.5,106h.5v.5h-.5V106"/></g><g clip-path="url(#clip-path-4)"><path d="M156,143.5h.5v.5H156v-.5"/><path d="M156,131h.5v.5H156V131"/><path d="M156,118.5h.5v.5H156v-.5"/><path d="M156,106h.5v.5H156V106"/><path d="M168.5,143.5h.5v.5h-.5v-.5"/><path d="M168.5,131h.5v.5h-.5V131"/><path d="M168.5,118.5h.5v.5h-.5v-.5"/><path d="M168.5,106h.5v.5h-.5V106"/><path d="M181,143.5h.5v.5H181v-.5"/><path d="M181,131h.5v.5H181V131"/><path d="M181,118.5h.5v.5H181v-.5"/><path d="M181,106h.5v.5H181V106"/><path d="M193.5,143.5h.5v.5h-.5v-.5"/><path d="M193.5,131h.5v.5h-.5V131"/><path d="M193.5,118.5h.5v.5h-.5v-.5"/><path d="M193.5,106h.5v.5h-.5V106"/></g><g clip-path="url(#clip-path-5)"><path d="M6,193.5h.5v.5H6v-.5"/><path d="M6,181h.5v.5H6V181"/><path d="M6,168.5h.5v.5H6v-.5"/><path d="M6,156h.5v.5H6V156"/><path d="M18.5,193.5H19v.5h-.5v-.5"/><path d="M18.5,181H19v.5h-.5V181"/><path d="M18.5,168.5H19v.5h-.5v-.5"/><path d="M18.5,156H19v.5h-.5V156"/><path d="M31,193.5h.5v.5H31v-.5"/><path d="M31,181h.5v.5H31V181"/><path d="M31,168.5h.5v.5H31v-.5"/><path d="M31,156h.5v.5H31V156"/><path d="M43.5,193.5H44v.5h-.5v-.5"/><path d="M43.5,181H44v.5h-.5V181"/><path d="M43.5,168.5H44v.5h-.5v-.5"/><path d="M43.5,156H44v.5h-.5V156"/></g><g clip-path="url(#clip-path-6)"><path d="M56,193.5h.5v.5H56v-.5"/><path d="M56,181h.5v.5H56V181"/><path d="M56,168.5h.5v.5H56v-.5"/><path d="M56,156h.5v.5H56V156"/><path d="M68.5,193.5H69v.5h-.5v-.5"/><path d="M68.5,181H69v.5h-.5V181"/><path d="M68.5,168.5H69v.5h-.5v-.5"/><path d="M68.5,156H69v.5h-.5V156"/><path d="M81,193.5h.5v.5H81v-.5"/><path d="M81,181h.5v.5H81V181"/><path d="M81,168.5h.5v.5H81v-.5"/><path d="M81,156h.5v.5H81V156"/><path d="M93.5,193.5H94v.5h-.5v-.5"/><path d="M93.5,181H94v.5h-.5V181"/><path d="M93.5,168.5H94v.5h-.5v-.5"/><path d="M93.5,156H94v.5h-.5V156"/></g><g clip-path="url(#clip-path-7)"><path d="M106,193.5h.5v.5H106v-.5"/><path d="M106,181h.5v.5H106V181"/><path d="M106,168.5h.5v.5H106v-.5"/><path d="M106,156h.5v.5H106V156"/><path d="M118.5,193.5h.5v.5h-.5v-.5"/><path d="M118.5,181h.5v.5h-.5V181"/><path d="M118.5,168.5h.5v.5h-.5v-.5"/><path d="M118.5,156h.5v.5h-.5V156"/><path d="M131,193.5h.5v.5H131v-.5"/><path d="M131,181h.5v.5H131V181"/><path d="M131,168.5h.5v.5H131v-.5"/><path d="M131,156h.5v.5H131V156"/><path d="M143.5,193.5h.5v.5h-.5v-.5"/><path d="M143.5,181h.5v.5h-.5V181"/><path d="M143.5,168.5h.5v.5h-.5v-.5"/><path d="M143.5,156h.5v.5h-.5V156"/></g><g clip-path="url(#clip-path-8)"><path d="M156,193.5h.5v.5H156v-.5"/><path d="M156,181h.5v.5H156V181"/><path d="M156,168.5h.5v.5H156v-.5"/><path d="M156,156h.5v.5H156V156"/><path d="M168.5,193.5h.5v.5h-.5v-.5"/><path d="M168.5,181h.5v.5h-.5V181"/><path d="M168.5,168.5h.5v.5h-.5v-.5"/><path d="M168.5,156h.5v.5h-.5V156"/><path d="M181,193.5h.5v.5H181v-.5"/><path d="M181,181h.5v.5H181V181"/><path d="M181,168.5h.5v.5H181v-.5"/><path d="M181,156h.5v.5H181V156"/><path d="M193.5,193.5h.5v.5h-.5v-.5"/><path d="M193.5,181h.5v.5h-.5V181"/><path d="M193.5,168.5h.5v.5h-.5v-.5"/><path d="M193.5,156h.5v.5h-.5V156"/></g><g clip-path="url(#clip-path-9)"><path d="M6,43.5h.5V44H6v-.5"/><path d="M6,31h.5v.5H6V31"/><path d="M6,18.5h.5V19H6v-.5"/><path d="M6,6h.5v.5H6V6"/><path d="M18.5,43.5H19V44h-.5v-.5"/><path d="M18.5,31H19v.5h-.5V31"/><path d="M18.5,18.5H19V19h-.5v-.5"/><path d="M18.5,6H19v.5h-.5V6"/><path d="M31,43.5h.5V44H31v-.5"/><path d="M31,31h.5v.5H31V31"/><path d="M31,18.5h.5V19H31v-.5"/><path d="M31,6h.5v.5H31V6"/><path d="M43.5,43.5H44V44h-.5v-.5"/><path d="M43.5,31H44v.5h-.5V31"/><path d="M43.5,18.5H44V19h-.5v-.5"/><path d="M43.5,6H44v.5h-.5V6"/></g><g clip-path="url(#clip-path-10)"><path d="M56,43.5h.5V44H56v-.5"/><path d="M56,31h.5v.5H56V31"/><path d="M56,18.5h.5V19H56v-.5"/><path d="M56,6h.5v.5H56V6"/><path d="M68.5,43.5H69V44h-.5v-.5"/><path d="M68.5,31H69v.5h-.5V31"/><path d="M68.5,18.5H69V19h-.5v-.5"/><path d="M68.5,6H69v.5h-.5V6"/><path d="M81,43.5h.5V44H81v-.5"/><path d="M81,31h.5v.5H81V31"/><path d="M81,18.5h.5V19H81v-.5"/><path d="M81,6h.5v.5H81V6"/><path d="M93.5,43.5H94V44h-.5v-.5"/><path d="M93.5,31H94v.5h-.5V31"/><path d="M93.5,18.5H94V19h-.5v-.5"/><path d="M93.5,6H94v.5h-.5V6"/></g><g clip-path="url(#clip-path-11)"><path d="M106,43.5h.5V44H106v-.5"/><path d="M106,31h.5v.5H106V31"/><path d="M106,18.5h.5V19H106v-.5"/><path d="M106,6h.5v.5H106V6"/><path d="M118.5,43.5h.5V44h-.5v-.5"/><path d="M118.5,31h.5v.5h-.5V31"/><path d="M118.5,18.5h.5V19h-.5v-.5"/><path d="M118.5,6h.5v.5h-.5V6"/><path d="M131,43.5h.5V44H131v-.5"/><path d="M131,31h.5v.5H131V31"/><path d="M131,18.5h.5V19H131v-.5"/><path d="M131,6h.5v.5H131V6"/><path d="M143.5,43.5h.5V44h-.5v-.5"/><path d="M143.5,31h.5v.5h-.5V31"/><path d="M143.5,18.5h.5V19h-.5v-.5"/><path d="M143.5,6h.5v.5h-.5V6"/></g><g clip-path="url(#clip-path-12)"><path d="M156,43.5h.5V44H156v-.5"/><path d="M156,31h.5v.5H156V31"/><path d="M156,18.5h.5V19H156v-.5"/><path d="M156,6h.5v.5H156V6"/><path d="M168.5,43.5h.5V44h-.5v-.5"/><path d="M168.5,31h.5v.5h-.5V31"/><path d="M168.5,18.5h.5V19h-.5v-.5"/><path d="M168.5,6h.5v.5h-.5V6"/><path d="M181,43.5h.5V44H181v-.5"/><path d="M181,31h.5v.5H181V31"/><path d="M181,18.5h.5V19H181v-.5"/><path d="M181,6h.5v.5H181V6"/><path d="M193.5,43.5h.5V44h-.5v-.5"/><path d="M193.5,31h.5v.5h-.5V31"/><path d="M193.5,18.5h.5V19h-.5v-.5"/><path d="M193.5,6h.5v.5h-.5V6"/></g><g clip-path="url(#clip-path-13)"><path d="M6,93.5h.5V94H6v-.5"/><path d="M6,81h.5v.5H6V81"/><path d="M6,68.5h.5V69H6v-.5"/><path d="M6,56h.5v.5H6V56"/><path d="M18.5,93.5H19V94h-.5v-.5"/><path d="M18.5,81H19v.5h-.5V81"/><path d="M18.5,68.5H19V69h-.5v-.5"/><path d="M18.5,56H19v.5h-.5V56"/><path d="M31,93.5h.5V94H31v-.5"/><path d="M31,81h.5v.5H31V81"/><path d="M31,68.5h.5V69H31v-.5"/><path d="M31,56h.5v.5H31V56"/><path d="M43.5,93.5H44V94h-.5v-.5"/><path d="M43.5,81H44v.5h-.5V81"/><path d="M43.5,68.5H44V69h-.5v-.5"/><path d="M43.5,56H44v.5h-.5V56"/></g><g clip-path="url(#clip-path-14)"><path d="M56,93.5h.5V94H56v-.5"/><path d="M56,81h.5v.5H56V81"/><path d="M56,68.5h.5V69H56v-.5"/><path d="M56,56h.5v.5H56V56"/><path d="M68.5,93.5H69V94h-.5v-.5"/><path d="M68.5,81H69v.5h-.5V81"/><path d="M68.5,68.5H69V69h-.5v-.5"/><path d="M68.5,56H69v.5h-.5V56"/><path d="M81,93.5h.5V94H81v-.5"/><path d="M81,81h.5v.5H81V81"/><path d="M81,68.5h.5V69H81v-.5"/><path d="M81,56h.5v.5H81V56"/><path d="M93.5,93.5H94V94h-.5v-.5"/><path d="M93.5,81H94v.5h-.5V81"/><path d="M93.5,68.5H94V69h-.5v-.5"/><path d="M93.5,56H94v.5h-.5V56"/></g><g clip-path="url(#clip-path-15)"><path d="M106,93.5h.5V94H106v-.5"/><path d="M106,81h.5v.5H106V81"/><path d="M106,68.5h.5V69H106v-.5"/><path d="M106,56h.5v.5H106V56"/><path d="M118.5,93.5h.5V94h-.5v-.5"/><path d="M118.5,81h.5v.5h-.5V81"/><path d="M118.5,68.5h.5V69h-.5v-.5"/><path d="M118.5,56h.5v.5h-.5V56"/><path d="M131,93.5h.5V94H131v-.5"/><path d="M131,81h.5v.5H131V81"/><path d="M131,68.5h.5V69H131v-.5"/><path d="M131,56h.5v.5H131V56"/><path d="M143.5,93.5h.5V94h-.5v-.5"/><path d="M143.5,81h.5v.5h-.5V81"/><path d="M143.5,68.5h.5V69h-.5v-.5"/><path d="M143.5,56h.5v.5h-.5V56"/></g><g clip-path="url(#clip-path-16)"><path d="M156,93.5h.5V94H156v-.5"/><path d="M156,81h.5v.5H156V81"/><path d="M156,68.5h.5V69H156v-.5"/><path d="M156,56h.5v.5H156V56"/><path d="M168.5,93.5h.5V94h-.5v-.5"/><path d="M168.5,81h.5v.5h-.5V81"/><path d="M168.5,68.5h.5V69h-.5v-.5"/><path d="M168.5,56h.5v.5h-.5V56"/><path d="M181,93.5h.5V94H181v-.5"/><path d="M181,81h.5v.5H181V81"/><path d="M181,68.5h.5V69H181v-.5"/><path d="M181,56h.5v.5H181V56"/><path d="M193.5,93.5h.5V94h-.5v-.5"/><path d="M193.5,81h.5v.5h-.5V81"/><path d="M193.5,68.5h.5V69h-.5v-.5"/><path d="M193.5,56h.5v.5h-.5V56"/></g></svg>